<?xml version="1.0" encoding="utf-8"?>
<!-- Generator: Adobe Illustrator 19.2.1, SVG Export Plug-In . SVG Version: 6.00 Build 0)  -->
<svg version="1.1" id="layer" xmlns="http://www.w3.org/2000/svg" xmlns:xlink="http://www.w3.org/1999/xlink" x="0px" y="0px"
	 viewBox="0 0 652 652" style="enable-background:new 0 0 652 652;" xml:space="preserve">
<style type="text/css">
	.st0{fill:#00ABE6;}
</style>
<g>
	<path class="st0" d="M583.5,291.5c-0.4-4.3-0.9-8.3-1.3-11.7c-0.5-3.4-0.9-6.5-1.4-8.8c-0.7-4.3-1.3-6.7-1.3-6.7
		c0-0.4-0.2-0.7-0.2-1.1c0-0.4-0.2-0.7-0.4-1.1c-13.5-54.3-42.4-97.5-81.8-121.5c-30.1-18.4-64.8-24.2-97.7-16.1l-114.1,28.2
		c-1.3,0.2-2.3,0.4-3.8,0.7l-51.4,12.8c-7.9,2-17.7,6.5-25.1,11.6c-7.4,5.1-14.3,10.8-20.2,17.3c-6,6.5-11,13.5-15,21.1
		c-4,7.6-6.5,14.8-7.4,22c-1.1,7.9-0.5,14.8,1.6,20.8c2.2,6,5.6,10.6,10.3,14.3c4.5,3.6,10.3,5.8,16.8,6.9
		c6.5,1.1,13.7,0.7,21.3-1.1l20.8-5.4c4.5-0.9,8.3-0.4,11.4,2c3.1,2.3,4.2,5.8,3.6,10.6c-0.7,4.7-3.1,9-7,13.2
		c-4,4.2-8.5,6.9-13,8.1l-64.4,17c-3.1,0.7-6,2.2-8.7,3.8c-25.3,13.7-22.7,42.1-22.7,42.1l78.2-20.8l11.9-3.1
		c7.9-2.3,15.7-5.8,23.1-10.6c5.1-3.2,9.7-6.9,14.1-11l-8.1,56.9l-9.6,66.2c0,0,35.9-2.5,43.7-41.3c0.2-0.9,0.4-1.8,0.4-2.7
		c0.7-1.8,1.1-3.6,1.4-5.4l1.6-9l32.3-8.3c9.9-2.5,19.7-6.9,29.1-12.8c1.1-0.7,2-1.3,2.9-2c-0.2,0.7-0.4,1.4-0.4,2.2
		c-1.1,7.9-0.5,14.8,1.6,20.8c2.3,6,5.6,10.6,10.3,14.3c4.7,3.6,10.3,5.8,16.8,6.9s13.7,0.7,21.3-1.1l20.8-5.4
		c4.5-0.9,8.5-0.4,11.4,2c3.1,2.3,4.2,5.8,3.6,10.6c-0.7,4.7-3.1,9-7,13.2c-4,4.2-8.5,6.9-13,8.1l-75.5,18.6H343l-111.2,27.1
		c-23.6,5.8-48,1.6-70-11.7c-31.4-19.1-54.7-54.9-65.7-100.5v-0.2c-0.2-0.9-0.7-2.9-1.4-6c-0.4-2-0.9-4.3-1.6-7
		c-0.5-2.9-1.3-6.1-1.8-9.9c-1.1-7.6-2.2-16.8-2.5-27.3c-0.4-10.6,0-22.7,1.6-35.7c1.6-13,4.5-27.1,9-41.5
		c4.5-14.4,10.8-29.2,19.1-43.7s18.2-28.5,30.1-41.5l2.2-2.5l0.4-0.4c-0.4,0.4,0,0,0,0l0.2-0.2l0.5-0.5l1.3-1.3l4.9-4.9
		c1.6-1.8,3.2-3.1,4.9-4.7l4.9-4.5c3.2-2.9,6.9-5.8,10.3-8.7c3.6-2.7,7-5.4,10.8-7.9c14.8-10.3,30.7-18.8,47.3-25.5
		c16.6-6.7,33.8-10.8,50.7-13.5c2.2-0.4,4.2-0.5,6.3-0.9c1.1-0.2,2.3-0.4,3.4-0.4c2.9-0.5,4.9-3.1,4.5-6c-0.2-2.5-2.3-4.5-4.7-4.9
		c-1.4,0-2.9,0.2-4.3,0.2c-2.2,0.2-4.5,0.4-6.7,0.5c-17.9,1.6-36.3,5.1-54.3,11c-18.1,6-35.7,14.1-52.3,24
		c-4.2,2.5-8.1,5.2-12.3,7.9c-4,2.9-7.8,5.6-11.7,8.7l-5.8,4.7c-2,1.6-3.8,3.1-5.6,4.7l-4.2,4.5l-1.3,1.1l-0.7,0.7l-0.9,0.7
		l-2.5,2.5c-13.7,13.4-25.8,28.2-35.9,43.7c-10.1,15.3-18.1,31.6-24.2,47.3c-6.1,15.9-10.5,31.4-13.2,46c-2.7,14.6-4,28.3-4.3,40.4
		c-0.4,12.1,0.2,22.7,1.1,31.6c0.4,4.3,0.9,8.3,1.3,11.7c0.5,3.4,0.9,6.5,1.4,8.7c0.7,4.3,1.3,6.7,1.3,6.7c0,0.4,0.2,0.7,0.2,1.1
		s0.2,0.7,0.4,0.9c13.5,54.3,42.4,97.5,81.8,121.5c21.3,13,44.8,19.7,68.2,19.7c9.7,0,19.7-1.1,29.4-3.4l94.4-22.9
		c0.9-0.2,1.8-0.4,2.9-0.5l32.3-7.9l11.7-2.9c0.4,0,0.5-0.2,0.9-0.2l30.7-7.6c7.9-2.3,15.7-5.8,23.1-10.6c7.4-4.9,14.1-10.3,20-16.8
		c6-6.3,10.8-13.4,14.8-20.8c4-7.6,6.5-15,7.6-22.6c1.1-7.8,0.5-14.6-1.6-20.6c-2.2-6-5.8-10.8-10.3-14.6
		c-4.7-3.8-10.3-6.1-16.8-7.2c-6.5-1.1-13.4-0.7-20.8,1.3l-20.4,5.2c-4.9,1.3-8.7,0.7-11.6-1.6s-4.2-5.8-3.6-10.1
		c0.9-5.1,3.2-9.7,7-13.9c3.8-4.2,8.1-7,12.8-8.1l70.6-18.1c2.9-0.7,5.6-2,8.1-3.4c25.6-13.4,23.3-42.1,23.3-42.1l-23.3,6
		c-0.9,0.2-1.6,0.4-2.5,0.5l-70.6,18.1c-6,1.4-11.7,4-17.5,7c1.3-4.2,2.2-8.3,2.7-12.5c1.4-9.6,0.7-18.2-1.8-25.8
		c-2.5-7.6-6.7-13.7-12.5-18.4c-5.8-4.7-12.6-7.8-21.1-9c-8.3-1.4-17.5-0.7-27.6,1.8l-52.5,13.5c-0.9,0.2-2,0.5-2.9,0.9
		c0,0,0,0,0-0.2c-2.2-6-5.6-10.8-10.3-14.6c-4.7-3.8-10.3-6.1-16.8-7.2c-6.5-1.1-13.4-0.7-20.8,1.3l-20.4,5.2
		c-4.9,1.3-8.7,0.7-11.6-1.6c-2.9-2.3-4.2-5.6-3.6-10.1c0.9-5.1,3.2-9.7,7-13.9c3.8-4.2,8.1-7,12.8-8.1l41.3-10.6l143.5-35
		c23.6-5.8,48-1.6,70,11.7c31.4,19.1,54.7,54.9,65.7,100.5c0,0,0,0,0,0.2c0.2,0.9,0.7,2.9,1.4,6c0.4,2,0.9,4.3,1.6,7.2
		c0.5,2.9,1.3,6.3,1.8,9.9c1.1,7.6,2.2,16.8,2.5,27.4c0.4,10.6,0,22.7-1.6,35.7c-1.6,13-4.5,27.1-9.2,41.7
		c-4.7,14.4-11,29.2-19.3,43.9c-8.3,14.4-18.4,28.7-30.3,41.7l-2.2,2.3l-2.3,2.5c-1.6,1.8-3.2,3.2-4.7,4.7c-3.1,3.1-6.5,6.1-9.7,9
		c-6.9,5.8-13.9,11.2-21.5,16.2c-15,10.1-31.2,18.4-48,24.7c-16.8,6.5-33.9,11-50.9,13.7c-4.3,0.7-8.5,1.3-12.8,1.8
		c-2.3,0.7-4,3.2-3.8,5.8s2.2,4.5,4.5,4.9c4.5-0.2,9-0.5,13.5-1.1c17.9-2,36.1-5.6,54.3-11.2c18.1-5.8,35.9-13.4,52.9-23.3
		c8.5-4.9,16.6-10.3,24.4-16.2c3.8-3.1,7.6-6,11.4-9.2c1.8-1.6,3.8-3.2,5.4-4.9l2.5-2.3l2.7-2.7c13.9-13.4,26-28.2,36.1-43.7
		c10.1-15.5,18.2-31.6,24.4-47.5c6.1-15.9,10.5-31.6,13.2-46.2c2.9-14.6,4-28.3,4.3-40.6C584.7,310.8,584.2,300.1,583.5,291.5z
		 M303.9,287.9l32.3-8.3c4.3-1.1,8.5-1.4,12.3-0.7c3.8,0.5,6.9,2,9.6,4.2c2.5,2.2,4.5,4.9,5.6,8.3c1.1,3.4,1.4,7.2,0.9,11.6
		c-0.5,4.5-2,8.7-4.3,13c-2.2,4.2-5.1,8.1-8.5,11.7s-7.2,6.9-11.4,9.6c-4.2,2.7-8.5,4.5-13,5.8l-32.5,8.3L303.9,287.9z"/>
</g>
</svg>
