<svg version="1.1" id="Layer_1" xmlns="http://www.w3.org/2000/svg" xmlns:xlink="http://www.w3.org/1999/xlink" x="0px" y="0px" viewBox="0 0 55.8 55.5" style="enable-background:new 0 0 55.8 55.5;" xml:space="preserve">
 <style type="text/css">
  .st0{fill-rule:evenodd;clip-rule:evenodd;fill:#CC0000;}
 </style>
 <g>
  <path class="st0" d="M27.9,0C12.5,0,0,12.4,0,27.7c0,7.4,2.9,14.4,8.2,19.6s12.3,8.1,19.7,8.1c15.4,0,27.9-12.4,27.9-27.8
		C55.8,12.4,43.3,0,27.9,0z M45.1,34.8c-2.9,6.9-9.7,11.4-17.2,11.4C17.6,46.2,9.3,38,9.3,27.7c0-7.5,4.5-14.2,11.5-17.1
		c7-2.9,15-1.3,20.3,4C46.4,20,48,27.9,45.1,34.8z M37.2,27.7c0,5.1-4.2,9.2-9.3,9.2c-5.1,0-9.3-4.1-9.3-9.2c0-5.1,4.2-9.2,9.3-9.2
		C33,18.5,37.2,22.6,37.2,27.7L37.2,27.7z">
  </path>
 </g>
</svg>