<?xml version="1.0" encoding="utf-8"?>
<!-- Generator: Adobe Illustrator 21.1.0, SVG Export Plug-In . SVG Version: 6.00 Build 0)  -->
<svg version="1.1" id="Layer_1" xmlns="http://www.w3.org/2000/svg" xmlns:xlink="http://www.w3.org/1999/xlink" x="0px" y="0px"
	 viewBox="0 0 1920 1080" style="enable-background:new 0 0 1920 1080;" xml:space="preserve">
<style type="text/css">
	.st0{fill:#D7282E;}
	.st1{filter:url(#Adobe_OpacityMaskFilter);}
	.st2{fill:#FFFFFF;}
	.st3{mask:url(#b_2_);fill:#7A0019;}
	.st4{fill:#FFCC33;}
	.st5{fill:#7A0019;}
</style>
<g>
	<g transform="translate(.773 .704)">
		<defs>
			<filter id="Adobe_OpacityMaskFilter" filterUnits="userSpaceOnUse" x="9.2" y="16.6" width="1900" height="1045.3">
				<feColorMatrix  type="matrix" values="1 0 0 0 0  0 1 0 0 0  0 0 1 0 0  0 0 0 1 0"/>
			</filter>
		</defs>
		<mask maskUnits="userSpaceOnUse" x="9.2" y="16.6" width="1900" height="1045.3" id="b_2_">
			<g class="st1">
				<path id="a_2_" class="st2" d="M9.4,16.6h1899.8v1045.1H9.4V16.6z"/>
			</g>
		</mask>
		<path class="st3" d="M1861.6,989.7c3.8,0.8,6.5,4.3,6.3,8.2c0,1.9-0.5,3.5-1.5,5c-1,1.6-2.6,2.8-4.3,3.4c-2,0.7-4.1,1.1-6.2,1.1
			h-8.6v-18.6h8.6C1857.7,988.9,1859.5,989.1,1861.6,989.7z M1854.7,1016.6c3.3,0,5.9,0.5,7.6,1.4c1.8,0.9,3,2.1,3.7,3.7
			c0.9,2.4,1.4,5,1.5,7.6c0.3,4.9,0.6,7.9,1,8.8h12.4c-0.6-2.5-0.9-5.1-0.9-7.7c0-2.5-0.2-5-0.6-7.5c-0.4-2.1-1.2-4-2.3-5.8
			c-1-1.5-2.4-2.8-4-3.7c-2-1-4.2-1.8-6.4-2.2c2.2-0.2,4.4-0.7,6.4-1.5c2.3-1.1,4.3-2.9,5.7-5.2c1.4-2.3,2.2-5,2.1-7.8
			c0.1-5.4-2.6-10.5-7.2-13.4c-2.5-1.5-5.2-2.5-8.1-3c-3.4-0.5-6.9-0.7-10.4-0.6h-20.9v58.3h13v-21.5H1854.7L1854.7,1016.6z
			 M1904.5,987.2c-2.5-5.5-6-10.6-10.2-14.9c-4.7-4.8-10.3-8.7-16.4-11.4c-6.7-3.1-14.1-4.6-21.5-4.5c-8,0-15.7,1.8-22.9,5.2
			c-11.5,5.5-20.5,15-25.5,26.7c-6.5,15.3-5.5,32.8,2.7,47.3c4.7,8.3,11.2,14.8,19.5,19.4c21.1,12.1,47.7,8.2,64.5-9.4
			c4.6-4.7,8.2-10.3,10.7-16.7c2.5-6.4,3.8-13,3.8-19.7C1909.2,1001.6,1907.7,994.3,1904.5,987.2z M1873.1,967.5
			c5.5,2.2,10.1,5.2,14.1,9.1c4,3.9,7.1,8.2,9.4,12.9c6.4,13.4,5.9,29.1-1.4,42.1c-3.8,7-9.6,12.7-16.5,16.6
			c-7,3.9-14.4,5.9-22.1,5.9c-7.7,0-15-2-22.1-5.9c-7-3.9-12.7-9.6-16.5-16.6c-3.9-6.8-6-14.6-5.9-22.5c0-6.7,1.3-12.8,3.9-18.3
			c2.5-5.5,5.8-10.1,9.6-13.9c8.3-8.1,19.4-12.7,31-12.7C1862.1,964.2,1867.6,965.3,1873.1,967.5z M1656.1,795.2l-307.9-511.9h84.8
			V16.6H920.4v266.7h84.8L887.6,478.9L770,283.4h84.8V16.6H342.2v266.7H427L119.1,795.2H9.2V1062H532V795.2h-93.9l160.4-266.7
			L660.7,632H601v266.7h573.1V632h-59.6l62.2-103.4l160.4,266.7h-93.9V1062h522.7V795.2H1656.1"/>
	</g>
	<path class="st4" d="M1399.6,51.5v198.4h-111.1l349.1,580.3h95v198.3h-454.4V830.1h120.2L1177.5,463l-122.7,203.9h85.9v198.3H636
		V666.9h86L599.3,463L378.4,830.2h120.2v198.3H44.2V830.1h94.9l349.1-580.3H377.2V51.5h444.2v198.4H710.2l178.1,296.1l178.1-296.1
		H955.4V51.5H1399.6"/>
	<path class="st5" d="M1365.4,85.7v130H1228l390.2,648.7h80.1v129.9h-386V864.3h146.5l-281.3-467.7L994.3,701.1h112.2V831H670.2
		V701.1h112.2L599.3,396.6L317.9,864.3h146.5v129.9h-386V864.3h80.1l390.2-648.7H411.4v-130h375.8v130H649.8l238.6,396.6L1127,215.7
		H989.6v-130H1365.4"/>
</g>
</svg>
